<svg xmlns="http://www.w3.org/2000/svg" viewBox="0 0 637.04 228.89"><defs><style>.cls-1{fill:#aa6b48;}</style></defs><g id="圖層_2" data-name="圖層 2"><g id="圖層_1-2" data-name="圖層 1"><path class="cls-1" d="M75.76,25.56c5.86-.18,14.45,1.61,23.13.44a14.92,14.92,0,0,1,6.38.86,4.51,4.51,0,0,1,3.34,5c-.29,2.32-2.46,2.59-4.23,2.66A92.32,92.32,0,0,1,88.44,34c-2.24-.3-4.39-.22-4.5,3-.59,18.53-12,25-26.15,28.3-4.26,1-4.36,2.23-2.77,5.48A70.39,70.39,0,0,0,69.09,90c15,14.82,24.76,32.19,27.55,53.25a11.24,11.24,0,0,1,.23,2c-.16,3,.11,6.78-3.53,7.37s-3.92-3.19-4.57-5.87c-3.25-13.45-6.92-26.76-15.67-37.89A161.2,161.2,0,0,0,61.15,95.42C55.12,89.31,50,82.66,47,74.52c-1-2.74-1.82-3.36-4.47-1.25C33.47,80.5,30.33,90.66,28,101.32c-3.12,14.21-2.4,28.74-3.8,43.1a30.92,30.92,0,0,1-1,4.83c-.49,1.83-1.85,2.18-3.53,1.8s-2.69-1-2.67-2.92c.1-14.3-.58-28.62,1.42-42.85.58-4.1,1.25-8.18,2.11-12.22C23,81.67,29.29,72.75,38.36,65.7c3.13-2.43,4-5,3-9.07a58.16,58.16,0,0,1-1.51-17.81c.19-3.28-1-4.25-4.25-4.35-8.35-.27-16.6,1-24.92,1.14a30.42,30.42,0,0,1-7.37-1C1.79,34.27.31,34,0,32.14A4,4,0,0,1,2.27,28,12.76,12.76,0,0,1,9,26.54c9.15,0,18.31-.22,27.46-.1,2.77,0,3.65-.82,4-3.53.69-5.26-.21-10.67,1.47-15.83A22.34,22.34,0,0,1,43,3.8C44,1.69,45.46-.49,48.14.1,51,.72,51.29,3.35,51,5.75c-.74,5.08-1.62,10.14-2.57,15.18-.66,3.48.46,4.82,4.13,4.7C59.33,25.4,66.16,25.56,75.76,25.56ZM61.58,33.83v.06c-3.31,0-6.63.06-9.94,0-2.35-.06-3.74.5-3.71,3.28C48,43.42,47.81,49.7,49,55.92c.33,1.78.81,2.65,2.93,2,5.38-1.63,10.78-3.14,15.63-6.09,4.53-2.76,6.88-6.82,7.52-12.11.54-4.45-.74-6.56-5.56-6A65.67,65.67,0,0,1,61.58,33.83Z"/><path class="cls-1" d="M389.55,37.56l4,0,1,0H409c-9,2-9.21,2-9.68,11.47-.4,8-.05,16-.37,23.93-.16,3.83,1.65,4.39,4.81,4.36,14.8-.12,29.61-.12,44.41-.15,4.32,0,8.65,0,13,.12,2.57.1,3.61-.87,3.57-3.46-.16-9.14-.06-18.29-.34-27.43-.17-5.94-1.73-7-11.09-9H482.9c-5.58,2.83-5.55,8-5.52,13.53.14,22.45.06,44.9.07,67.35a28.31,28.31,0,0,0,.24,5c.78,4.27,2.42,7.64,7.75,7.21a7.63,7.63,0,0,1,4.6,1.57H455.56c0-.16-.05-.65.05-.68,8.42-3,8.78-3.48,8.84-12.76.06-11,0-22,.23-32.93.07-3.29-1.07-4.31-4.3-4.29q-28.2.17-56.4,0c-3.7,0-5.06,1.31-5,4.92.25,11.14.22,22.28.52,33.42.24,8.92,1.07,9.69,9.74,11a4.12,4.12,0,0,1,2.89,1.51H376.87c.19-.48.24-1,.42-1,8.32-2.55,9.21-3.68,9.23-12.93.05-23.45,0-46.9.07-70.35a12.27,12.27,0,0,0-2-7.51C385.22,37.88,388.19,39.08,389.55,37.56Z"/><path class="cls-1" d="M637,132.2c-8.59,0-17.18,0-25.77,0-1.06,0-3.77.43-1.56-2.3,1.16-1.44-.07-2.9-.64-4.19-4-9.09-8.22-18.11-12.17-27.24-1.11-2.55-2.76-3.43-5.36-3.41q-13.47.09-26.94,0c-2.7,0-4.21,1.09-5.2,3.65-2.8,7.26-6,14.36-8.71,21.67-2.8,7.62-2.08,8.84,6.34,12H525.82c.14-.46.23-1,.31-1,10,0,14.28-6.54,17.75-14.76,10.68-25.35,21.73-50.54,32.63-75.8.26-.61.53-1.21.79-1.82.59-1.38,1.16-3.12,2.73-3.27,1.76-.16,2.24,1.85,2.81,3.08,4.92,10.68,9.64,21.44,14.53,32.13Q607.93,94,618.66,117C622.33,124.81,627.05,131.55,637,132.2Zm-59-41.54v0h12c1.92,0,3.31-.27,2.23-2.83-4.37-10.38-8.66-20.79-13-31.19-.38-.91-.81-2.06-2-1.77-.59.14-1.13,1.1-1.4,1.8-4,10.18-7.78,20.41-11.83,30.55-1.2,3,.08,3.48,2.56,3.47C570.44,90.64,574.26,90.66,578.08,90.66Z"/><path class="cls-1" d="M278.42,111.1c4.66,16.41,17.87,22.9,33.4,17.27,12.73-4.61,16-18.67,6.79-28.57-5.05-5.42-11.28-9.22-17.27-13.39-6.57-4.57-13-9.31-17.43-16.16-4.68-7.29-5.34-15.3-.7-22.54a25.45,25.45,0,0,1,9.45-9c4.83-2.51,10.21-3.37,15.58-3.63a70.34,70.34,0,0,1,11,.34c1.85.21,3.7.49,5.52.84a26.89,26.89,0,0,0,5.16,1c1.39.2,1.8,1.27,1.74,2.57a31,31,0,0,1-.18,3.48c-.4,2.38,1.07,6.07-1.29,6.84s-1.95-3.31-3.39-4.9a13.4,13.4,0,0,0-5.31-3.56c-8.06-3-16.26-3.71-24.14.29-8.18,4.16-10.14,14-4.48,21.14,5,6.4,12.12,10.26,18.72,14.69s13.4,8.91,18,15.53c9.39,13.54,4,31-11.64,37.35a52.28,52.28,0,0,1-37,.91c-3.14-1-4.53-2.56-4.32-6.05C276.86,121,276.56,116.36,278.42,111.1Z"/><path class="cls-1" d="M233.57,132.12H200.34c.08-.2.17-.69.27-.7,8.19-.19,8.94-6.15,9-12.12q.24-36.4,0-72.82c0-6-1.87-7.21-9.93-9h28.53C221,41.08,222,48,222,54c0,22.6-1,45.21.73,67.8.49,6.47,1.81,8.07,8.24,8.72A2.59,2.59,0,0,1,233.57,132.12Z"/><path class="cls-1" d="M227.35,176.52h9.76c-.73,4.16,5,23.3,9.25,30.8,4.32-6.43,6.52-13.71,10-20.31,1.24-2.34,2.21-4.82,3.21-7.27.45-1.1.79-2.42,2.16-2.33s1.59,1.42,2.05,2.5c3.53,8.21,7.11,16.4,10.67,24.6.44,1,.56,2.27,2.51,2.68,3.17-10.05,8.81-19.37,9.74-30.71a24.71,24.71,0,0,1,6.77.11c-5,6.09-6.64,13.66-9.73,20.55-2.37,5.29-4.41,10.72-6.65,16.07-.49,1.16-.64,2.94-2.32,2.85s-1.63-1.9-2.13-3c-3.42-7.72-6.74-15.49-10.18-23.21-.56-1.26-.74-3.28-2.63-3.18-1.65.08-1.39,2.06-1.91,3.14-3.74,7.77-7.24,15.65-10.94,23.44-.51,1.08-.81,2.92-2.41,2.79s-1.69-1.84-2.14-3.05c-3.85-10.22-7.74-20.43-11.48-30.69A11.78,11.78,0,0,0,227.35,176.52Z"/><path class="cls-1" d="M425.31,176.34c7.57.35,14.36-.86,21.09.77,8.6,2.09,11,9.19,5.35,16.13-4.24,5.26-4.24,5.26.78,10.35,4.52,4.58,8.58,9.72,15.08,12-5.59,1-9.77-.09-13.5-3.78-3.07-3-5.89-6.32-8.89-9.43-1.23-1.27-2.23-2.72-4.29-3.12s-4.93-1.2-6.74.05-1.68,4.13-1.66,6c0,1.24,0,2.5,0,3.74a17.47,17.47,0,0,0,.68,3.6c.23.85.51,1.85-.31,2.48-1.76,1.36-5.05.74-7.79,1C428.2,210.47,428.51,181,425.31,176.34Zm7.27,11.07c.05,1.85.05,3.71,0,5.57-.05,1.48,0,3,1.35,3.87,2,1.31,11.05.48,12.79-1.37,3.15-3.36,3.6-7.34,1.81-11.46a11.84,11.84,0,0,0-13.23-6.37,3.51,3.51,0,0,0-3,2.92,44.93,44.93,0,0,0,.23,6.45C432.58,187.15,432.58,187.28,432.58,187.41Z"/><path class="cls-1" d="M188.46,214c-3.77-1.49-2.56-6.2-2.62-9.36,0-2-.13-4.07,0-6.11.1-1.52.6-2.44,2.16-2.5a54.47,54.47,0,0,1,5.57-.2,13.3,13.3,0,0,1,5.87,1.62c.35.21.84.42,1.13.12a.94.94,0,0,0,.17-.55c.1-1.28.19-2.56.29-3.84-4.23.35-8.47,1.35-12.69.83a3.05,3.05,0,0,1-2-.79c-1.12-1.26-.75-3.16-.77-4.7,0-1.94-.22-3.86-.19-5.8a4,4,0,0,1,2.13-3.8,12.4,12.4,0,0,1,14.68,2.95c-.86-2.89.76-5.62-3.14-5.56-7,.11-13.94,0-21.15,0,3,4.48,2.64,35.49-.55,39.93,6.77,0,13.18-.14,19.58.06,3.89.12,6.5-.87,6.72-6C200.59,214,193,215.8,188.46,214Z"/><path class="cls-1" d="M135,169.5h11.51c-3,1.82-2.63,4.21-2.63,6.51,0,11.14-.07,22.28,0,33.42.07,9.18-4.08,15.6-12.54,19.46,6.53-6.09,6.57-14,6.53-21.95q-.06-15.72,0-31.43C137.87,173,138,170.6,135,169.5Z"/><path class="cls-1" d="M503.51,216.08c-3.07-.17-6.3-.7-9.8.11,7.32-8.62-1.37-30-16.61-39.84,3.38,0,5.73,0,8.09,0,1.08,0,1.86-.08,2.48,1.55,2.36,6.25,7.14,11,10.77,16.52,1.42,2.15,2.5,1.59,3.5-.25,3.05-5.65,8.05-10,10.06-16.43,1-3.1,4.6-.74,8.07-1.74-7.43,5.81-12.09,12.58-16.25,19.44C500,201.76,500.93,209,503.51,216.08Z"/><path class="cls-1" d="M146.59,76.66c2.58,1.2,7.15,0,8.15,4.78.37,1.78-7.34,10-8.92,10S136.9,82.8,137,81.23C137.08,79.12,142,76.65,146.59,76.66Z"/><path class="cls-1" d="M389.55,37.56c-1.36,1.52-4.33.32-5,3-2.92-2-6.44-1.83-9.76-2.77C379.7,36.71,384.63,37.38,389.55,37.56Z"/><path class="cls-1" d="M399.92,210.17c-4.59,4.92-11.72,5.67-19.36,2.29l-.21-31.36a7.25,7.25,0,0,1,.23-2.33,2.77,2.77,0,0,1,.81-1.25,2.52,2.52,0,0,1,.63-.38l.65-.28.38-.14c-.17-.05-.3-.12-.48-.16l-.65-.12c-.43-.07-.86-.14-1.29-.19a24.29,24.29,0,0,0-4.51-.11c-.75.05-1.5.14-2.24.26q-.56.09-1.11.21l-.55.12a4.56,4.56,0,0,1-.53.13,2.35,2.35,0,0,1,2.19,1.34,6.31,6.31,0,0,1,.57,2.65c.14,2.14.16,4.28.16,6.43,0,3.89-.08,7.78,0,11.67l.06,3.39c0,1.14,0,2.28,0,3.42s-.06,2.26-.14,3.4-.21,2.24-.4,3.36c-.08.47-.17.94-.28,1.41-.05.24-.11.47-.17.71s-.07.35-.12.51a.78.78,0,0,1-.38.36.51.51,0,0,1-.44.1c-.61-.24-.5.35.15.37,1.94,0,3.88,0,5.82,0h1.72c4.58.12,9.16.19,13.73.38C398.35,216.48,400.15,214.54,399.92,210.17Z"/><path class="cls-1" d="M394.53,37.61l-1,0Z"/><path class="cls-1" d="M327.57,213.43a23.08,23.08,0,0,1,.43-17.51c3.74-.24,9.2-.8,12.8,1.71.37-2.23,1.75-4.42-2.38-3.81-3.55.53-7.2.43-10.81.61h0c-2.13-4.56-.84-9.41-1.14-14.12a1.72,1.72,0,0,1,1.89-1.87c3.8.11,7.65-.69,11.36.73.82.31,1.18,2,2.33,1,.47-.41.44-1.54.45-2.34,0-1.4-1.05-1.47-2.08-1.47H318.37c.95,1.11,1.92,1.72,1.92,2.33.12,11.8.12,23.6.15,35.4h0c-.7.5-1,.94.16,1.19a1.84,1.84,0,0,0,.29.06,1.19,1.19,0,0,0,.46,0l.22,0h.09c5.76.27,11.52.53,17.28.82,4,.2,5.51-1.9,5.48-6C339.53,216.61,333.4,214.17,327.57,213.43Z"/></g></g></svg>